<svg width="240" height="240" viewBox="0 0 240 240" fill="none" xmlns="http://www.w3.org/2000/svg">
<path d="M185.901 154.428C184.07 163.49 179.168 171.641 172.022 177.503C164.877 183.364 155.927 186.576 146.687 186.595C121.947 186.569 98.228 176.723 80.7342 159.22C63.2404 141.716 53.4007 117.983 53.3743 93.2291C53.3934 83.984 56.6035 75.0293 62.4616 67.8797C68.3196 60.7302 76.4661 55.8247 85.5228 53.9931C88.3858 53.4262 91.3557 53.8152 93.9765 55.1002C96.5973 56.3853 98.7242 58.4954 100.031 61.1067L112.783 86.6713C113.829 88.7713 114.303 91.1104 114.157 93.4522C114.011 95.794 113.249 98.0558 111.95 100.009L102.486 114.214C107.359 124.381 115.553 132.58 125.714 137.456L139.911 127.986C141.863 126.686 144.124 125.924 146.464 125.778C148.805 125.632 151.142 126.106 153.241 127.152L178.791 139.912C181.401 141.219 183.51 143.348 184.794 145.97C186.079 148.592 186.467 151.564 185.901 154.428ZM240 119.905C240.004 140.468 234.73 160.686 224.682 178.623C214.634 196.56 200.15 211.614 182.617 222.342C165.085 233.069 145.093 239.111 124.557 239.887C104.021 240.664 83.6297 236.149 65.3383 226.776L29.3129 238.836C25.3911 240.158 21.1781 240.358 17.1487 239.414C13.1193 238.469 9.4337 236.417 6.50731 233.489C3.58092 230.561 1.53008 226.873 0.58591 222.842C-0.358255 218.81 -0.158202 214.594 1.16352 210.67L13.172 174.624C4.92592 158.463 0.449006 140.641 0.0778597 122.499C-0.293286 104.357 3.45099 86.3666 11.0292 69.8809C18.6074 53.3951 29.8222 38.843 43.8306 27.3184C57.839 15.7939 74.2763 7.59694 91.9066 3.34385C109.537 -0.909232 127.902 -1.10776 145.62 2.76319C163.338 6.63413 179.948 14.4738 194.202 25.6928C208.456 36.9118 219.983 51.2182 227.915 67.5362C235.847 83.8542 239.979 101.759 240 119.905ZM213.339 119.905C213.334 105.584 210.036 91.4559 203.7 78.614C197.365 65.7721 188.162 54.5606 176.803 45.8467C165.445 37.1329 152.235 31.1503 138.196 28.3617C124.157 25.5732 109.665 26.0534 95.8407 29.7653C82.0168 33.4772 69.2315 40.3213 58.474 49.768C47.7165 59.2148 39.2751 71.011 33.8028 84.2442C28.3305 97.4774 25.974 111.793 26.9156 126.083C27.8572 140.373 32.0717 154.255 39.2329 166.655C40.1794 168.29 40.7679 170.108 40.9595 171.987C41.151 173.867 40.9411 175.766 40.3438 177.559L29.3129 210.67L62.4056 199.633C63.7669 199.179 65.1921 198.947 66.6269 198.944C68.9681 198.948 71.267 199.569 73.2921 200.745C87.4782 208.958 103.576 213.288 119.966 213.298C136.355 213.309 152.459 209 166.656 200.805C180.852 192.611 192.641 180.819 200.837 166.617C209.032 152.415 213.344 136.304 213.339 119.905Z" fill="black"/>
</svg>
